<svg width="1587" height="1153" fill="none" xmlns="http://www.w3.org/2000/svg"><g clip-path="url(#a)"><path d="m832.939 825.456 53.033-53.033M856.955 814.973l53.033-53.033M1035.94 222.456l53.03-53.033M1059.96 211.972l53.03-53.033M483.939 649.456l53.033-53.033M507.955 638.972l53.033-53.033M13.94 1055.46l53.032-53.04M37.955 1044.97l53.033-53.03M1418.94 561.456l53.03-53.033M1442.96 550.972l53.03-53.033M1445.94 889.456l53.03-53.033M1469.96 878.973l53.03-53.033M287.939 365.456l53.033-53.033M311.955 354.972l53.033-53.033M944.939 660.456l53.033-53.033M968.955 649.972l53.035-53.033M-1.06 436.456l53.032-53.033M22.955 425.972l53.033-53.033" stroke="#EEE" stroke-width="3"/><path d="m269.519 671.506-4.759 17.759-13-13.001 17.759-4.758zM704.519 891.506l-4.759 17.759-13-13.001 17.759-4.758zM320.519 146.506l-4.759 17.759-13-13.001 17.759-4.758zM691.509 697.503l-6.025 22.484-16.459-16.459 22.484-6.025zM1402.51 651.503l-6.03 22.484-16.46-16.459 22.49-6.025zM1307.51 333.503l-6.03 22.484-16.46-16.459 22.49-6.025zM1194.51 680.503l-6.03 22.484-16.46-16.459 22.49-6.025zM1499.51 1152.5l-6.03 22.49-16.46-16.46 22.49-6.03zM59.019 235.673l-7.4 27.618L31.4 243.073l27.619-7.4z" fill="#EEE"/><path d="m60.94 63.456 53.032-53.033M84.955 52.972 137.988-.06" stroke="#EEE" stroke-width="3"/></g><defs><clipPath id="a"><path fill="#fff" d="M0 0h1587v1153H0z"/></clipPath></defs></svg>